<svg width="20" height="20" viewBox="0 0 20 20" fill="none" xmlns="http://www.w3.org/2000/svg">
<path d="M6.59996 11.2247C7.77496 11.2247 8.71663 12.1756 8.71663 13.3589V16.1997C8.71663 17.3747 7.77496 18.3331 6.59996 18.3331H3.78329C2.61663 18.3331 1.66663 17.3747 1.66663 16.1997V13.3589C1.66663 12.1756 2.61663 11.2247 3.78329 11.2247H6.59996ZM16.2167 11.2247C17.3834 11.2247 18.3334 12.1756 18.3334 13.3589V16.1997C18.3334 17.3747 17.3834 18.3331 16.2167 18.3331H13.4C12.225 18.3331 11.2834 17.3747 11.2834 16.1997V13.3589C11.2834 12.1756 12.225 11.2247 13.4 11.2247H16.2167ZM6.59996 1.66666C7.77496 1.66666 8.71663 2.62499 8.71663 3.80082V6.64166C8.71663 7.82499 7.77496 8.77499 6.59996 8.77499H3.78329C2.61663 8.77499 1.66663 7.82499 1.66663 6.64166V3.80082C1.66663 2.62499 2.61663 1.66666 3.78329 1.66666H6.59996ZM16.2167 1.66666C17.3834 1.66666 18.3334 2.62499 18.3334 3.80082V6.64166C18.3334 7.82499 17.3834 8.77499 16.2167 8.77499H13.4C12.225 8.77499 11.2834 7.82499 11.2834 6.64166V3.80082C11.2834 2.62499 12.225 1.66666 13.4 1.66666H16.2167Z" fill="#F8F7F7"/>
</svg>
