<svg width="21" height="20" viewBox="0 0 21 20" fill="none" xmlns="http://www.w3.org/2000/svg">
<path d="M2.48474 15.8333C2.48474 17.25 3.56807 18.3333 4.98474 18.3333H16.6514C18.0681 18.3333 19.1514 17.25 19.1514 15.8333V9.16666H2.48474V15.8333ZM16.6514 3.33332H14.9847V2.49999C14.9847 1.99999 14.6514 1.66666 14.1514 1.66666C13.6514 1.66666 13.3181 1.99999 13.3181 2.49999V3.33332H8.31807V2.49999C8.31807 1.99999 7.98474 1.66666 7.48474 1.66666C6.98474 1.66666 6.65141 1.99999 6.65141 2.49999V3.33332H4.98474C3.56807 3.33332 2.48474 4.41666 2.48474 5.83332V7.49999H19.1514V5.83332C19.1514 4.41666 18.0681 3.33332 16.6514 3.33332Z" fill="#F8F7F7"/>
</svg>
