<svg width="18" height="18" viewBox="0 0 18 18" fill="none" xmlns="http://www.w3.org/2000/svg">
<path d="M0.666626 14.8333C0.666626 16.25 1.74996 17.3333 3.16663 17.3333H14.8333C16.25 17.3333 17.3333 16.25 17.3333 14.8333V8.16666H0.666626V14.8333ZM14.8333 2.33332H13.1666V1.49999C13.1666 0.99999 12.8333 0.666656 12.3333 0.666656C11.8333 0.666656 11.5 0.99999 11.5 1.49999V2.33332H6.49996V1.49999C6.49996 0.99999 6.16663 0.666656 5.66663 0.666656C5.16663 0.666656 4.83329 0.99999 4.83329 1.49999V2.33332H3.16663C1.74996 2.33332 0.666626 3.41666 0.666626 4.83332V6.49999H17.3333V4.83332C17.3333 3.41666 16.25 2.33332 14.8333 2.33332Z" fill="#004E89"/>
</svg>
