<svg width="76" height="76" viewBox="0 0 76 76" fill="none" xmlns="http://www.w3.org/2000/svg">
<circle cx="38" cy="38" r="38" fill="#FCEEEE"/>
<path d="M46.2162 49.7702C45.3073 49.7502 44.5763 48.9902 44.5763 48.0702C44.5565 47.1502 45.2876 46.3922 46.1965 46.3722H46.2162C47.1449 46.3722 47.8957 47.1322 47.8957 48.0702C47.8957 49.0102 47.1449 49.7702 46.2162 49.7702ZM38.1548 42.4102C37.2459 42.4522 36.495 41.7302 36.4555 40.8122C36.4555 39.8922 37.1668 39.1322 38.0757 39.0902C38.9649 39.0902 39.6959 39.7922 39.7157 40.6902C39.7552 41.6122 39.0439 42.3722 38.1548 42.4102ZM38.1548 49.6702C37.2459 49.7122 36.495 48.9902 36.4555 48.0702C36.4555 47.1502 37.1668 46.3922 38.0757 46.3502C38.9649 46.3502 39.6959 47.0522 39.7157 47.9522C39.7552 48.8722 39.0439 49.6322 38.1548 49.6702ZM30.034 42.4102C29.1251 42.4522 28.3743 41.7302 28.3348 40.8122C28.3348 39.8922 29.0461 39.1322 29.955 39.0902C30.8441 39.0902 31.5752 39.7922 31.5949 40.6902C31.6344 41.6122 30.9231 42.3722 30.034 42.4102ZM30.0142 49.6702C29.1054 49.7122 28.3545 48.9902 28.315 48.0702C28.315 47.1502 29.0263 46.3922 29.9352 46.3502C30.8243 46.3502 31.5554 47.0522 31.5752 47.9522C31.6147 48.8722 30.9034 49.6322 30.0142 49.6702ZM44.596 40.7922C44.596 39.8722 45.3073 39.1322 46.2162 39.1122C47.1054 39.1122 47.8167 39.8302 47.8562 40.7122C47.8759 41.6322 47.1646 42.3922 46.2755 42.4102C45.3666 42.4302 44.6158 41.7302 44.596 40.8122V40.7922ZM20.1152 32.1042V47.3302C20.1152 53.6502 24.1065 57.5902 30.3699 57.5902H45.8408C52.1635 57.5902 56.1152 53.7302 56.1152 47.4522V32.1042H20.1152Z" fill="#D20606"/>
<path opacity="0.4" d="M20.1221 32.1041C20.1478 30.9301 20.2465 28.6001 20.4323 27.8501C21.3807 23.6321 24.6013 20.9521 29.2051 20.5701H47.0272C51.5914 20.9721 54.8516 23.6701 55.8 27.8501C55.9838 28.5801 56.0826 30.9281 56.1082 32.1041H20.1221Z" fill="#D20606"/>
<path d="M30.7245 26.7703C31.5939 26.7703 32.2459 26.1123 32.2459 25.2303V19.1323C32.2459 18.2503 31.5939 17.5903 30.7245 17.5903C29.8552 17.5903 29.2031 18.2503 29.2031 19.1323V25.2303C29.2031 26.1123 29.8552 26.7703 30.7245 26.7703Z" fill="#D20606"/>
<path d="M45.5048 26.7703C46.3544 26.7703 47.0262 26.1123 47.0262 25.2303V19.1323C47.0262 18.2503 46.3544 17.5903 45.5048 17.5903C44.6354 17.5903 43.9834 18.2503 43.9834 19.1323V25.2303C43.9834 26.1123 44.6354 26.7703 45.5048 26.7703Z" fill="#D20606"/>
</svg>
