<svg width="20" height="20" viewBox="0 0 20 20" fill="none" xmlns="http://www.w3.org/2000/svg">
<path d="M8.2538 16.3532C9.92134 16.3532 11.484 15.8545 12.7845 15.0026L17.3781 19.5636C17.6822 19.8545 18.0703 20 18.4898 20C19.3603 20 20 19.3247 20 18.4727C20 18.0779 19.8637 17.6935 19.57 17.4026L15.0079 12.8623C15.9518 11.5325 16.5076 9.92208 16.5076 8.17662C16.5076 3.67792 12.795 0 8.2538 0C3.72313 0 0 3.67792 0 8.17662C0 12.6753 3.71264 16.3532 8.2538 16.3532ZM8.2538 14.1714C4.92921 14.1714 2.20241 11.4701 2.20241 8.17662C2.20241 4.88312 4.92921 2.18182 8.2538 2.18182C11.5784 2.18182 14.3052 4.88312 14.3052 8.17662C14.3052 11.4701 11.5784 14.1714 8.2538 14.1714Z" fill="#858585"/>
</svg>
