<svg width="24" height="26" viewBox="0 0 24 26" fill="none" xmlns="http://www.w3.org/2000/svg">
<g clip-path="url(#clip0_3_219)">
<path d="M23.9885 13.2284C23.9885 12.2285 23.9069 11.4988 23.7301 10.7421H12.239V15.2553H18.984C18.8481 16.3769 18.1138 18.066 16.4819 19.201L16.459 19.3521L20.0923 22.1489L20.344 22.1738C22.6558 20.0523 23.9885 16.9309 23.9885 13.2284Z" fill="#4285F4"/>
<path d="M12.239 25.1196C15.5435 25.1196 18.3177 24.0385 20.344 22.1738L16.4819 19.201C15.4484 19.9171 14.0612 20.4171 12.239 20.4171C9.00248 20.4171 6.25551 18.2957 5.27629 15.3634L5.13276 15.3755L1.35483 18.2808L1.30542 18.4172C3.31804 22.3899 7.45214 25.1196 12.239 25.1196Z" fill="#34A853"/>
<path d="M5.27634 15.3633C5.01797 14.6066 4.86844 13.7958 4.86844 12.9581C4.86844 12.1202 5.01797 11.3095 5.26275 10.5528L5.25591 10.3916L1.43062 7.4397L1.30547 7.49885C0.475969 9.14743 0 10.9987 0 12.9581C0 14.9174 0.475969 16.7686 1.30547 18.4172L5.27634 15.3633Z" fill="#FBBC05"/>
<path d="M12.239 5.49903C14.5372 5.49903 16.0875 6.48546 16.9714 7.30979L20.4255 3.95861C18.3042 1.99927 15.5435 0.796631 12.239 0.796631C7.45214 0.796631 3.31804 3.52618 1.30542 7.4989L5.2627 10.5528C6.25551 7.62056 9.00248 5.49903 12.239 5.49903Z" fill="#EB4335"/>
</g>
<defs>
<clipPath id="clip0_3_219">
<rect width="24" height="24.4068" fill="white" transform="translate(0 0.796631)"/>
</clipPath>
</defs>
</svg>
