<svg width="76" height="76" viewBox="0 0 76 76" fill="none" xmlns="http://www.w3.org/2000/svg">
<circle cx="38" cy="38" r="38" fill="#FCEEEE"/>
<path opacity="0.4" d="M51.6176 32.042C50.7146 32.042 49.5185 32.022 48.0293 32.022C44.3974 32.022 41.4111 29.016 41.4111 25.35V18.918C41.4111 18.412 41.0071 18 40.5061 18H29.9273C24.9903 18 21 22.052 21 27.018V48.568C21 53.778 25.1804 58 30.3392 58H46.0926C51.0116 58 55 53.974 55 49.004V32.942C55 32.434 54.598 32.024 54.095 32.026C53.2494 32.032 52.2355 32.042 51.6176 32.042Z" fill="#D20606"/>
<path opacity="0.4" d="M46.1684 19.1346C45.5704 18.5126 44.5264 18.9406 44.5264 19.8026V25.0766C44.5264 27.2886 46.3484 29.1086 48.5604 29.1086C49.9544 29.1246 51.8904 29.1286 53.5344 29.1246C54.3764 29.1226 54.8044 28.1166 54.2204 27.5086C52.1104 25.3146 48.3324 21.3826 46.1684 19.1346Z" fill="#D20606"/>
<path d="M42.8362 43.7856C43.6582 43.7856 44.3262 44.4536 44.3262 45.2756C44.3262 46.0976 43.6582 46.7636 42.8362 46.7636H31.9482C31.1262 46.7636 30.4602 46.0976 30.4602 45.2756C30.4602 44.4536 31.1262 43.7856 31.9482 43.7856H42.8362ZM38.718 33.7972C39.54 33.7972 40.208 34.4652 40.208 35.2872C40.208 36.1092 39.54 36.7752 38.718 36.7752H31.948C31.126 36.7752 30.46 36.1092 30.46 35.2872C30.46 34.4652 31.126 33.7972 31.948 33.7972H38.718Z" fill="#D20606"/>
</svg>
