<svg width="77" height="76" viewBox="0 0 77 76" fill="none" xmlns="http://www.w3.org/2000/svg">
<circle cx="38.5" cy="38" r="38" fill="#FCEEEE"/>
<path opacity="0.4" d="M57.0673 33.1021H54.6611V30.7496C54.6611 29.7452 53.8556 28.9263 52.8632 28.9263C51.8728 28.9263 51.0652 29.7452 51.0652 30.7496V33.1021H48.6632C47.6707 33.1021 46.8652 33.921 46.8652 34.9253C46.8652 35.9296 47.6707 36.7485 48.6632 36.7485H51.0652V39.1031C51.0652 40.1075 51.8728 40.9263 52.8632 40.9263C53.8556 40.9263 54.6611 40.1075 54.6611 39.1031V36.7485H57.0673C58.0577 36.7485 58.8652 35.9296 58.8652 34.9253C58.8652 33.921 58.0577 33.1021 57.0673 33.1021Z" fill="#D20606"/>
<path d="M33.8652 43.9574C25.7737 43.9574 18.8652 45.251 18.8652 50.4195C18.8652 55.5861 25.7316 56.9263 33.8652 56.9263C41.9548 56.9263 48.8652 55.6327 48.8652 50.4642C48.8652 45.2956 41.9988 43.9574 33.8652 43.9574Z" fill="#D20606"/>
<path opacity="0.4" d="M33.8657 39.0348C39.3748 39.0348 43.791 34.5617 43.791 28.9816C43.791 23.4014 39.3748 18.9263 33.8657 18.9263C28.3566 18.9263 23.9404 23.4014 23.9404 28.9816C23.9404 34.5617 28.3566 39.0348 33.8657 39.0348Z" fill="#D20606"/>
</svg>
