<svg width="30" height="30" viewBox="0 0 30 30" fill="none" xmlns="http://www.w3.org/2000/svg">
<path d="M23.2664 0H6.73363C3.01475 0 0 3.01475 0 6.73363V23.2664C0 26.9852 3.01475 30 6.73363 30H23.2664C26.9852 30 30 26.9852 30 23.2664V6.73363C30 3.01475 26.9852 0 23.2664 0Z" fill="#D20606"/>
<path d="M10.3914 5.1958H19.7437C19.9515 5.29971 20.2633 5.29971 20.4711 5.40363C21.3831 5.55143 22.2358 5.95065 22.9333 6.55643C23.6309 7.16221 24.1457 7.95053 24.4198 8.83279C24.5733 9.34121 24.6777 9.86317 24.7316 10.3915V19.5359C24.583 20.6949 24.1551 21.8004 23.4846 22.7573C22.9094 23.4237 22.1883 23.9485 21.3773 24.291C20.5663 24.6334 19.6872 24.7842 18.8085 24.7316H11.0149C9.62407 24.7992 8.25656 24.3556 7.17008 23.4847C6.5094 22.9138 5.98802 22.1995 5.64582 21.3962C5.30362 20.5929 5.14966 19.722 5.19572 18.8501V11.5761C5.17855 11.0544 5.21336 10.5322 5.29963 10.0174C5.40456 8.95207 5.84259 7.9469 6.55147 7.14475C7.26035 6.3426 8.20402 5.78427 9.24837 5.54911L10.3914 5.1958ZM7.17008 15.0676V19.1203C7.12578 19.6364 7.19482 20.1559 7.37237 20.6425C7.54993 21.1291 7.8317 21.571 8.19796 21.9372C8.56422 22.3035 9.00612 22.5853 9.49272 22.7628C9.97931 22.9404 10.4988 23.0094 11.0149 22.9651C13.7167 23.069 16.4184 23.069 19.1202 22.9651C21.5102 22.9651 22.8611 21.5103 22.965 19.1203C23.0689 16.4185 23.0689 13.7168 22.965 11.015C22.992 10.503 22.9109 9.99105 22.7272 9.51238C22.5435 9.0337 22.2613 8.599 21.8987 8.23646C21.5362 7.87392 21.1015 7.59165 20.6228 7.40795C20.1441 7.22426 19.6322 7.14324 19.1202 7.17017C16.4184 7.06625 13.7167 7.06625 11.0149 7.17017C10.4988 7.12586 9.97931 7.1949 9.49272 7.37246C9.00612 7.55001 8.56422 7.83178 8.19796 8.19805C7.8317 8.56431 7.54993 9.00621 7.37237 9.4928C7.19482 9.97939 7.12578 10.4989 7.17008 11.015V15.0676Z" fill="#353434"/>
<path d="M10.0173 15.1091C10.0201 13.7595 10.5574 12.466 11.5117 11.5117C12.466 10.5574 13.7595 10.0201 15.1091 10.0173C16.4512 10.0439 17.731 10.5889 18.6801 11.5381C19.6293 12.4873 20.1743 13.767 20.2009 15.1091C20.1982 16.4587 19.6608 17.7522 18.7065 18.7065C17.7522 19.6608 16.4587 20.1982 15.1091 20.2009C13.767 20.1743 12.4873 19.6293 11.5381 18.6801C10.5889 17.731 10.0439 16.4512 10.0173 15.1091ZM15.1091 11.8878C14.478 11.8775 13.8581 12.056 13.329 12.4002C12.8 12.7445 12.3857 13.2389 12.1394 13.8201C11.8931 14.4013 11.826 15.0428 11.9466 15.6624C12.0672 16.282 12.3701 16.8515 12.8165 17.2978C13.2628 17.7442 13.8323 18.0471 14.4519 18.1677C15.0715 18.2883 15.713 18.2212 16.2942 17.9749C16.8754 17.7286 17.3698 17.3144 17.7141 16.7853C18.0584 16.2562 18.2368 15.6364 18.2265 15.0052C18.2265 14.1784 17.8981 13.3855 17.3135 12.8009C16.7288 12.2162 15.9359 11.8878 15.1091 11.8878Z" fill="#353434"/>
<path d="M19.0579 9.80948C19.0521 9.64416 19.0803 9.47942 19.141 9.3255C19.2016 9.17159 19.2932 9.03179 19.4102 8.91482C19.5272 8.79785 19.6669 8.70621 19.8209 8.6456C19.9748 8.58499 20.1395 8.5567 20.3048 8.56251C20.6284 8.58439 20.933 8.7228 21.1622 8.95208C21.3915 9.18135 21.5299 9.48597 21.5518 9.80948C21.5518 10.1402 21.4204 10.4574 21.1866 10.6912C20.9527 10.9251 20.6356 11.0564 20.3048 11.0564C19.9741 11.0564 19.657 10.9251 19.4231 10.6912C19.1892 10.4574 19.0579 10.1402 19.0579 9.80948Z" fill="#353434"/>
</svg>
