<svg width="48" height="48" viewBox="0 0 48 48" fill="none" xmlns="http://www.w3.org/2000/svg">
<path d="M37.2262 0H10.7738C4.8236 0 0 4.8236 0 10.7738V37.2262C0 43.1764 4.8236 48 10.7738 48H37.2262C43.1764 48 48 43.1764 48 37.2262V10.7738C48 4.8236 43.1764 0 37.2262 0Z" fill="#D20606"/>
<path d="M16.6267 8.31311H31.5903C31.9228 8.47937 32.4216 8.47937 32.7541 8.64564C34.2133 8.88212 35.5776 9.52087 36.6937 10.4901C37.8098 11.4594 38.6335 12.7207 39.0721 14.1323C39.3177 14.9458 39.4847 15.7809 39.5709 16.6262V31.2573C39.3332 33.1116 38.6485 34.8804 37.5757 36.4115C36.6554 37.4778 35.5016 38.3175 34.204 38.8654C32.9064 39.4132 31.5 39.6545 30.0939 39.5705H17.6242C15.3989 39.6785 13.2109 38.9689 11.4725 37.5753C10.4154 36.662 9.58122 35.519 9.0337 34.2337C8.48618 32.9485 8.23984 31.5551 8.31354 30.16V18.5216C8.28607 17.6869 8.34177 16.8514 8.4798 16.0277C8.64769 14.3231 9.34854 12.7149 10.4827 11.4314C11.617 10.148 13.1268 9.25466 14.7978 8.8784L16.6267 8.31311ZM11.4725 24.1081V30.5923C11.4016 31.418 11.5121 32.2492 11.7962 33.0278C12.0803 33.8063 12.5311 34.5134 13.1171 35.0994C13.7032 35.6854 14.4102 36.1363 15.1887 36.4203C15.9673 36.7044 16.7985 36.8149 17.6242 36.744C21.9471 36.9103 26.2699 36.9103 30.5927 36.744C34.4168 36.744 36.5782 34.4163 36.7444 30.5923C36.9107 26.2695 36.9107 21.9466 36.7444 17.6238C36.7875 16.8046 36.6579 15.9855 36.364 15.2196C36.0701 14.4538 35.6184 13.7582 35.0384 13.1782C34.4583 12.5981 33.7628 12.1465 32.9969 11.8526C32.231 11.5586 31.4119 11.429 30.5927 11.4721C26.2699 11.3058 21.9471 11.3058 17.6242 11.4721C16.7985 11.4012 15.9673 11.5117 15.1887 11.7958C14.4102 12.0798 13.7032 12.5307 13.1171 13.1167C12.5311 13.7027 12.0803 14.4098 11.7962 15.1883C11.5121 15.9669 11.4016 16.7981 11.4725 17.6238V24.1081Z" fill="#F8F7F7"/>
<path d="M16.0283 24.1746C16.0327 22.0152 16.8925 19.9456 18.4193 18.4187C19.9462 16.8918 22.0159 16.0321 24.1752 16.0277C26.3225 16.0702 28.3701 16.9422 29.8888 18.4609C31.4075 19.9796 32.2795 22.0272 32.3221 24.1746C32.3177 26.3339 31.4579 28.4035 29.931 29.9304C28.4042 31.4573 26.3345 32.317 24.1752 32.3214C22.0278 32.2789 19.9803 31.4069 18.4615 29.8882C16.9428 28.3695 16.0709 26.3219 16.0283 24.1746ZM24.1752 19.0204C23.1653 19.004 22.1736 19.2895 21.3271 19.8403C20.4805 20.3912 19.8177 21.1822 19.4237 22.1122C19.0296 23.0421 18.9222 24.0685 19.1152 25.0598C19.3082 26.0512 19.7928 26.9624 20.507 27.6765C21.2211 28.3907 22.1323 28.8753 23.1236 29.0683C24.115 29.2613 25.1414 29.1539 26.0713 28.7598C27.0013 28.3658 27.7923 27.703 28.3432 26.8564C28.894 26.0099 29.1795 25.0182 29.1631 24.0083C29.1631 22.6854 28.6376 21.4168 27.7021 20.4814C26.7667 19.5459 25.4981 19.0204 24.1752 19.0204Z" fill="#F8F7F7"/>
<path d="M30.4934 15.6952C30.4841 15.4307 30.5293 15.1671 30.6263 14.9208C30.7233 14.6746 30.8699 14.4509 31.0571 14.2637C31.2442 14.0766 31.4679 13.93 31.7142 13.833C31.9604 13.736 32.224 13.6908 32.4885 13.7C33.0061 13.7351 33.4935 13.9565 33.8604 14.3233C34.2272 14.6902 34.4487 15.1776 34.4837 15.6952C34.4837 16.2243 34.2735 16.7318 33.8993 17.106C33.5251 17.4801 33.0177 17.6903 32.4885 17.6903C31.9594 17.6903 31.4519 17.4801 31.0777 17.106C30.7036 16.7318 30.4934 16.2243 30.4934 15.6952Z" fill="#F8F7F7"/>
</svg>
