<svg width="21" height="20" viewBox="0 0 21 20" fill="none" xmlns="http://www.w3.org/2000/svg">
<g clip-path="url(#clip0_378_1685)">
<path d="M16.6591 5.75311C16.6591 4.22812 16.0533 2.76558 14.9749 1.68725C13.8966 0.608915 12.4341 0.00311279 10.9091 0.00311279C9.38406 0.00311279 7.92153 0.608915 6.84319 1.68725C5.76486 2.76558 5.15906 4.22812 5.15906 5.75311C5.15906 8.92811 10.9091 16.9562 10.9091 16.9562C10.9091 16.9562 16.6591 8.92811 16.6591 5.75311ZM7.15906 5.75311C7.15906 5.01143 7.37899 4.28641 7.79105 3.66972C8.2031 3.05304 8.78877 2.57239 9.474 2.28856C10.1592 2.00474 10.9132 1.93047 11.6406 2.07517C12.3681 2.21986 13.0363 2.57702 13.5607 3.10146C14.0852 3.62591 14.4423 4.2941 14.587 5.02152C14.7317 5.74895 14.6574 6.50295 14.3736 7.18818C14.0898 7.8734 13.6091 8.45907 12.9924 8.87112C12.3758 9.28318 11.6507 9.50311 10.9091 9.50311C9.9145 9.50311 8.96067 9.10802 8.25741 8.40476C7.55415 7.7015 7.15906 6.74767 7.15906 5.75311Z" fill="#F8F7F7"/>
<path d="M13.8029 13.4375C13.3716 14.1406 12.9529 14.7906 12.5841 15.3469C14.1466 15.5594 15.2404 16.0594 15.2404 16.6469C15.2404 17.4219 13.3029 18.0531 10.9091 18.0531C8.51536 18.0531 6.57786 17.4281 6.57786 16.6469C6.57786 16.0563 7.67786 15.5563 9.23723 15.3469C8.86848 14.7906 8.44973 14.1375 8.01848 13.4344C4.23723 13.8625 1.50598 15.1313 1.50598 16.6344C1.50598 18.4938 5.71536 20 10.9091 20C16.1029 20 20.3122 18.4938 20.3122 16.6344C20.3122 15.1313 17.581 13.8625 13.8029 13.4375Z" fill="#F8F7F7"/>
</g>
<defs>
<clipPath id="clip0_378_1685">
<rect width="20" height="20" fill="white" transform="translate(0.909058)"/>
</clipPath>
</defs>
</svg>
