<svg width="12" height="17" viewBox="0 0 12 17" fill="none" xmlns="http://www.w3.org/2000/svg">
<path d="M11.75 5.75313C11.75 4.22813 11.1442 2.7656 10.0659 1.68726C8.98753 0.60893 7.525 0.00312805 6 0.00312805C4.47501 0.00312805 3.01247 0.60893 1.93414 1.68726C0.855802 2.7656 0.25 4.22813 0.25 5.75313C0.25 8.92813 6 16.9563 6 16.9563C6 16.9563 11.75 8.92813 11.75 5.75313ZM2.25 5.75313C2.25 5.01145 2.46993 4.28642 2.88199 3.66974C3.29404 3.05306 3.87971 2.57241 4.56494 2.28858C5.25016 2.00475 6.00416 1.93049 6.73159 2.07518C7.45902 2.21988 8.1272 2.57703 8.65165 3.10148C9.1761 3.62592 9.53325 4.29411 9.67795 5.02154C9.82264 5.74897 9.74838 6.50297 9.46455 7.18819C9.18072 7.87341 8.70007 8.45908 8.08339 8.87114C7.4667 9.28319 6.74168 9.50313 6 9.50313C5.00544 9.50313 4.05161 9.10804 3.34835 8.40478C2.64509 7.70152 2.25 6.74769 2.25 5.75313Z" fill="#004E89"/>
</svg>
