<svg width="76" height="76" viewBox="0 0 76 76" fill="none" xmlns="http://www.w3.org/2000/svg">
<circle cx="38" cy="38" r="38" fill="#FCEEEE"/>
<path d="M47.0276 20C53.92 20 57.9929 23.9572 57.9929 30.6757V30.7503H49.5236C45.5822 30.7572 42.3893 33.8703 42.3822 37.7131C42.3769 41.5646 45.5733 44.6916 49.5236 44.6968H58V45.3087C58 52.0272 53.9271 56 47.0347 56H28.9671C22.0729 56 18 52.0272 18 45.3087V30.6757C18 23.9572 22.0729 20 28.9671 20H47.0276ZM38.7662 27.7498H27.4791C26.64 27.7533 25.9591 28.4172 25.9555 29.237C25.952 30.0604 26.6347 30.7312 27.4791 30.7347H38.7804C39.6249 30.7312 40.3076 30.0604 40.304 29.2353C40.3004 28.412 39.6107 27.7464 38.7662 27.7498Z" fill="#D20606"/>
<path opacity="0.4" d="M46.0748 38.5933C46.4931 40.4957 48.161 41.8341 50.0652 41.7993H56.565C57.3573 41.7993 58 41.1432 58 40.3321V35.269C57.9983 34.4596 57.3573 33.8017 56.565 33.8H49.9122C47.7461 33.8069 45.9966 35.6049 46 37.8205C46 38.0799 46.0255 38.3392 46.0748 38.5933Z" fill="#D20606"/>
<path d="M50 39.8C51.1046 39.8 52 38.9046 52 37.8C52 36.6954 51.1046 35.8 50 35.8C48.8954 35.8 48 36.6954 48 37.8C48 38.9046 48.8954 39.8 50 39.8Z" fill="#D20606"/>
</svg>
