<svg width="76" height="76" viewBox="0 0 76 76" fill="none" xmlns="http://www.w3.org/2000/svg">
<circle cx="38" cy="38" r="38" fill="#FCEEEE"/>
<path d="M35.1516 52.7579C44.65 52.7579 52.35 45.0095 52.35 35.4514C52.35 25.8933 44.65 18.1449 35.1516 18.1449C25.6531 18.1449 17.9531 25.8933 17.9531 35.4514C17.9531 45.0095 25.6531 52.7579 35.1516 52.7579Z" fill="#D20606"/>
<path opacity="0.4" d="M55.3022 58.0555C54.6341 58.0338 53.9988 57.7589 53.5236 57.2859L49.4508 52.5253C48.5776 51.7267 48.5062 50.3696 49.2907 49.4828C49.6579 49.1112 50.1572 48.9022 50.678 48.9022C51.1988 48.9022 51.698 49.1112 52.0652 49.4828L57.1874 53.5812C57.9253 54.3364 58.1529 55.4575 57.7687 56.4434C57.3845 57.4293 56.4602 58.0958 55.4089 58.1449L55.3022 58.0555Z" fill="#D20606"/>
</svg>
