<svg width="9" height="8" viewBox="0 0 9 8" fill="none" xmlns="http://www.w3.org/2000/svg">
<path opacity="0.4" d="M5.22953 3.04305V2.20145C5.06431 2.20145 4.92731 2.06836 4.92731 1.90787V0.905772C4.92731 0.77229 4.81851 0.666992 4.6815 0.666992H1.91312C1.04272 0.666992 0.333496 1.35554 0.333496 2.20145V3.2149C0.333496 3.29358 0.365733 3.36795 0.422149 3.42275C0.478564 3.47716 0.555127 3.50848 0.63572 3.50848C0.941975 3.50848 1.17569 3.71986 1.17569 3.99778C1.17569 4.28784 0.937945 4.51879 0.63975 4.52231C0.474534 4.52231 0.333496 4.63583 0.333496 4.80024V5.80272C0.333496 6.64824 1.04272 7.33327 1.90909 7.33327H4.6815C4.81851 7.33327 4.92731 7.22719 4.92731 7.09449V6.24858C4.92731 6.08456 5.06431 5.955 5.22953 5.955V5.19599C5.06431 5.19599 4.92731 5.06251 4.92731 4.90241V3.33663C4.92731 3.17614 5.06431 3.04305 5.22953 3.04305Z" fill="#D20606"/>
<path d="M7.82459 3.99781C7.82459 4.28747 8.06637 4.51843 8.36054 4.52234C8.52575 4.52234 8.66679 4.63586 8.66679 4.79635V5.80236C8.66679 6.64827 7.9616 7.33329 7.09119 7.33329H5.77753C5.64455 7.33329 5.53172 7.22721 5.53172 7.09412V6.2486C5.53172 6.0842 5.39874 5.95502 5.22949 5.95502V5.19601C5.39874 5.19601 5.53172 5.06253 5.53172 4.90243V3.33666C5.53172 3.17578 5.39874 3.04308 5.22949 3.04308V2.20108C5.39874 2.20108 5.53172 2.06799 5.53172 1.9075V0.905798C5.53172 0.772316 5.64455 0.666626 5.77753 0.666626H7.09119C7.9616 0.666626 8.66679 1.35165 8.66679 2.19717V3.1836C8.66679 3.26189 8.63455 3.33666 8.57814 3.39107C8.52172 3.44587 8.44516 3.47719 8.36457 3.47719C8.06637 3.47719 7.82459 3.71244 7.82459 3.99781Z" fill="#D20606"/>
</svg>
