<svg width="76" height="76" viewBox="0 0 76 76" fill="none" xmlns="http://www.w3.org/2000/svg">
<circle cx="38" cy="38" r="38" fill="#FCEEEE"/>
<path opacity="0.4" d="M41.501 33.406V29.3663C40.7079 29.3663 40.0503 28.7275 40.0503 27.9571V23.1471C40.0503 22.5063 39.528 22.0009 38.8704 22.0009H25.5822C21.4043 22.0009 18 25.3059 18 29.3663V34.2308C18 34.6085 18.1547 34.9655 18.4255 35.2286C18.6963 35.4897 19.0638 35.64 19.4507 35.64C20.9207 35.64 22.0426 36.6547 22.0426 37.9887C22.0426 39.381 20.9014 40.4896 19.47 40.5065C18.677 40.5065 18 41.0514 18 41.8405V46.6524C18 50.7109 21.4043 53.999 25.5629 53.999H38.8704C39.528 53.999 40.0503 53.4898 40.0503 52.8529V48.7925C40.0503 48.0053 40.7079 47.3833 41.501 47.3833V43.7401C40.7079 43.7401 40.0503 43.0994 40.0503 42.3309V34.8152C40.0503 34.0448 40.7079 33.406 41.501 33.406Z" fill="#D20606"/>
<path d="M53.9575 37.9897C53.9575 39.3801 55.118 40.4886 56.53 40.5074C57.323 40.5074 58 41.0523 58 41.8227V46.6515C58 50.7119 54.6151 54 50.4371 54H44.1315C43.4932 54 42.9517 53.4908 42.9517 52.852V48.7935C42.9517 48.0043 42.3134 47.3843 41.501 47.3843V43.7411C42.3134 43.7411 42.9517 43.1003 42.9517 42.3319V34.8162C42.9517 34.0439 42.3134 33.407 41.501 33.407V29.3654C42.3134 29.3654 42.9517 28.7266 42.9517 27.9562V23.148C42.9517 22.5073 43.4932 22 44.1315 22H50.4371C54.6151 22 58 25.2881 58 29.3466V34.0815C58 34.4573 57.8453 34.8162 57.5745 35.0773C57.3037 35.3404 56.9362 35.4907 56.5493 35.4907C55.118 35.4907 53.9575 36.6199 53.9575 37.9897Z" fill="#D20606"/>
</svg>
