<svg width="30" height="30" viewBox="0 0 30 30" fill="none" xmlns="http://www.w3.org/2000/svg">
<g clip-path="url(#clip0_378_1857)">
<path d="M0 0H30V30H0V0Z" fill="#D20606"/>
<path d="M7.34985 18.6863L7.40891 18.8587C7.40242 18.8398 7.37938 18.7799 7.34985 18.6863ZM9.78346 14.7525C9.81568 14.3543 9.93726 13.9685 10.1392 13.6237C10.3411 13.279 10.6181 12.9842 10.9496 12.7613C11.9395 12.0375 13.1733 12.4462 13.1733 12.4462V10.0123C13.4731 10.0047 13.773 10.0235 14.0695 10.0684V13.1986C14.0695 13.1986 12.8357 12.7899 11.8459 13.5137C11.5143 13.7366 11.2373 14.0314 11.0354 14.3762C10.8335 14.7209 10.7119 15.1067 10.6797 15.505C10.6562 16.1244 10.8338 16.7347 11.1859 17.2449C11.0807 17.1888 10.9759 17.125 10.8672 17.0535C10.5094 16.7905 10.2228 16.4423 10.0335 16.0405C9.84429 15.6386 9.75833 15.196 9.78346 14.7525ZM19.1741 5.51243C18.641 4.91669 18.2839 4.18443 18.1429 3.39746H18.9993C18.9623 4.45813 19.3481 5.49007 20.0719 6.26635L20.0908 6.28495C19.7543 6.06703 19.4467 5.80747 19.1753 5.51243H19.1741ZM23.2954 7.71747V10.7851C22.6552 10.7558 22.019 10.6693 21.3942 10.5264C20.7443 10.3601 20.1208 10.1039 19.5418 9.76512C19.5418 9.76512 19.0398 9.43526 19.0017 9.41252V15.7501C18.9806 16.4219 18.8541 17.0863 18.6267 17.7189C18.0879 19.1126 17.0281 20.2423 15.6715 20.8689C14.933 21.2091 14.1296 21.3856 13.3165 21.3862C12.1896 21.3829 11.0877 21.0534 10.144 20.4374C9.81829 20.2127 9.51446 19.9578 9.23655 19.6761L9.24394 19.6835C10.1867 20.3015 11.2892 20.6312 12.4164 20.6323C13.2295 20.6316 14.0329 20.4552 14.7715 20.115C16.128 19.4884 17.1878 18.3587 17.7266 16.9649C17.954 16.3324 18.0806 15.668 18.1016 14.9961V8.66245C18.1429 8.68489 18.6417 9.01504 18.6417 9.01504C19.2207 9.3538 19.8442 9.61004 20.4942 9.77634C21.1189 9.91919 21.7551 10.0058 22.3953 10.035V7.63124C22.6888 7.70664 22.9923 7.73574 23.2948 7.71747H23.2954Z" fill="#353434"/>
<path d="M22.3956 7.6274V10.0312C21.7554 10.0019 21.1192 9.91535 20.4944 9.7725C19.8445 9.6062 19.221 9.34996 18.642 9.0112C18.642 9.0112 18.14 8.68135 18.1019 8.65861V14.9961C18.0808 15.668 17.9543 16.3324 17.7268 16.9649C17.188 18.3587 16.1283 19.4884 14.7717 20.115C14.0332 20.4551 13.2298 20.6316 12.4167 20.6323C11.2898 20.629 10.1879 20.2995 9.24421 19.6835L9.23683 19.6761C9.07921 19.5155 8.93026 19.3465 8.79062 19.17C8.43583 18.7008 8.1504 18.1831 7.9431 17.6326V17.6288C7.71736 16.97 7.60454 16.2778 7.6094 15.5814C7.62559 14.6737 7.86104 13.7834 8.29569 12.9863C8.64228 12.3711 9.09266 11.8205 9.62692 11.3589C10.099 10.9611 10.6338 10.6442 11.2095 10.4213C11.832 10.1591 12.499 10.0188 13.1744 10.0079V12.4415C13.1744 12.4415 11.9406 12.0328 10.9508 12.7566C10.5971 12.9893 10.3055 13.3047 10.1012 13.6755C9.89696 14.0463 9.78613 14.4613 9.77837 14.8845C9.7706 15.3078 9.86613 15.7266 10.0567 16.1047C10.2472 16.4827 10.5271 16.8086 10.8719 17.0541C10.9806 17.1253 11.0857 17.1891 11.1906 17.2455C11.5519 17.7265 12.0667 18.0698 12.6498 18.2184C13.2328 18.3671 13.8491 18.3122 14.3967 18.0629C14.7144 17.924 14.9992 17.7197 15.2325 17.4631C15.4658 17.2066 15.6423 16.9037 15.7504 16.5742C15.8675 16.1754 15.9144 15.7592 15.8892 15.3443V3.39746H18.1391C18.2784 4.18498 18.6356 4.91769 19.1703 5.51243C19.4433 5.80572 19.7507 6.06509 20.0857 6.28495C20.4477 6.67309 20.8724 6.99762 21.342 7.24499C21.6769 7.41378 22.0306 7.54263 22.3956 7.62888V7.6274Z" fill="#353434"/>
<path d="M7.04626 16.8899L7.10237 17.0511C7.09499 17.0325 7.07255 16.9761 7.04626 16.8899Z" fill="#D20606"/>
<path d="M11.2089 10.425C10.6328 10.6471 10.0979 10.964 9.62636 11.3626C9.09095 11.8246 8.64043 12.3767 8.29513 12.9939C7.85982 13.7907 7.62433 14.6812 7.60884 15.589C7.60548 16.2854 7.71825 16.9774 7.94253 17.6367V17.6405C8.15066 18.1906 8.43603 18.7082 8.79006 19.1778C8.9297 19.3544 9.07864 19.5233 9.23626 19.684C8.72828 19.3321 8.27468 18.9076 7.88997 18.4239C7.5357 17.9578 7.25146 17.4423 7.04629 16.894V16.8866C6.81841 16.227 6.70554 15.5332 6.71259 14.8354C6.72878 13.9277 6.96423 13.0373 7.39888 12.2403C7.74418 11.6231 8.1947 11.071 8.73011 10.609C9.33731 10.0903 10.0479 9.70666 10.8147 9.48361C11.5815 9.26056 12.387 9.20317 13.1777 9.31526V10.0128C12.501 10.0233 11.8326 10.1636 11.2089 10.4262V10.425Z" fill="#D20606"/>
<path d="M18.1427 3.39742H15.8927V15.3449C15.9161 15.7597 15.8692 16.1756 15.754 16.5748C15.6441 16.9033 15.4669 17.2054 15.2339 17.4617C15.0008 17.718 14.7169 17.9229 14.4003 18.0634C13.9819 18.2668 13.5156 18.351 13.0525 18.3067C12.5894 18.2623 12.1475 18.0912 11.7753 17.8121C11.5517 17.6587 11.3553 17.4691 11.1942 17.251C11.5456 17.4454 11.9386 17.5523 12.3401 17.5626C12.7416 17.5728 13.1396 17.4862 13.5005 17.3101C13.8179 17.1707 14.1024 16.9662 14.3356 16.7097C14.5688 16.4533 14.7455 16.1506 14.8542 15.8215C14.9713 15.4226 15.0182 15.0065 14.993 14.5915V2.6438H18.1016C18.079 2.89567 18.0929 3.14949 18.1427 3.39742ZM22.3951 6.96352V7.62736C21.506 7.42647 20.6998 6.95795 20.0852 6.28491C20.2015 6.35991 20.3176 6.42754 20.4413 6.49162C21.0426 6.81056 21.7145 6.97295 22.3951 6.96381V6.96352Z" fill="#D20606"/>
<path d="M18.2173 26.0544C18.2166 26.1396 18.2293 26.2244 18.2548 26.3057C18.2548 26.3131 18.2587 26.3169 18.2587 26.3243C18.3189 26.5178 18.4395 26.687 18.6028 26.807C18.7661 26.9271 18.9635 26.9918 19.1661 26.9917V27.9517C18.7094 27.9986 18.2497 27.8988 17.8535 27.6667C17.5703 27.4911 17.3379 27.2444 17.1794 26.9511C17.021 26.6578 16.942 26.3283 16.9504 25.995C16.9587 25.6618 17.054 25.3366 17.2269 25.0516C17.3998 24.7667 17.6442 24.5319 17.9359 24.3706C18.3176 24.1799 18.7445 24.0982 19.1697 24.1343V25.0943C19.045 25.0941 18.9216 25.1186 18.8064 25.1662C18.6912 25.2138 18.5865 25.2837 18.4983 25.3718C18.4102 25.46 18.3403 25.5646 18.2927 25.6798C18.2451 25.795 18.2207 25.9185 18.2209 26.0432L18.2173 26.0544Z" fill="#D20606"/>
<path d="M20.1223 26.0545C20.123 26.1397 20.1104 26.2245 20.0848 26.3058C20.0848 26.3132 20.081 26.317 20.081 26.3244C20.0207 26.5179 19.9002 26.6871 19.7369 26.8072C19.5736 26.9272 19.3762 26.9919 19.1735 26.9918V27.9518C19.629 27.9986 20.0875 27.8988 20.4823 27.6668C20.7616 27.4983 20.9922 27.2599 21.1514 26.9751C21.3105 26.6903 21.3927 26.3689 21.3898 26.0427C21.391 25.7009 21.3001 25.3652 21.1265 25.0708C20.9529 24.7765 20.7031 24.5344 20.4035 24.3701C20.0217 24.1795 19.5948 24.0977 19.1697 24.1338V25.0939C19.2943 25.0937 19.4178 25.1181 19.533 25.1657C19.6482 25.2133 19.7529 25.2832 19.841 25.3713C19.9292 25.4595 19.999 25.5641 20.0467 25.6793C20.0943 25.7945 20.1187 25.918 20.1185 26.0427V26.0539L20.1223 26.0545Z" fill="#353434"/>
<path d="M4.48126 23.2649H7.99539L7.67055 24.2323H6.75186V27.9337H5.62114V24.2323H4.48126V23.2649ZM13.7964 23.2649V24.2323H14.9362V27.9337H16.0687V24.2323H16.9874L17.3123 23.2649H13.7964ZM8.76023 24.3637C8.86851 24.3637 8.97436 24.3316 9.0644 24.2715C9.15443 24.2113 9.22461 24.1258 9.26605 24.0257C9.30748 23.9257 9.31833 23.8156 9.2972 23.7094C9.27608 23.6032 9.22393 23.5057 9.14736 23.4291C9.0708 23.3525 8.97324 23.3004 8.86704 23.2793C8.76083 23.2581 8.65075 23.269 8.55071 23.3104C8.45067 23.3518 8.36516 23.422 8.305 23.5121C8.24484 23.6021 8.21273 23.7079 8.21273 23.8162C8.2125 23.8882 8.22649 23.9594 8.2539 24.026C8.28132 24.0925 8.32161 24.1529 8.37246 24.2038C8.42332 24.2547 8.48373 24.295 8.55023 24.3224C8.61672 24.3499 8.68799 24.3639 8.75993 24.3637H8.76023ZM8.21244 27.9307H9.32249V24.75H8.21244V27.9307ZM13.3123 24.3383H12.0148L10.8973 25.4558V23.2649H9.79497L9.79113 27.926H10.905V26.7111L11.2499 26.3951L12.3299 27.9251H13.5176L11.9525 25.6902L13.3123 24.3383ZM23.9548 25.6967L25.3132 24.3383H24.0157L22.8982 25.4558V23.2649H21.795L21.7876 27.9307H22.9015V26.7158L23.2502 26.4007L24.3302 27.9307H25.5191L23.9548 25.6967ZM21.101 26.0416C21.1062 26.4255 20.9972 26.8021 20.7877 27.1238C20.5783 27.4455 20.2779 27.6976 19.9248 27.8481C19.5717 27.9986 19.1818 28.0407 18.8047 27.969C18.4276 27.8973 18.0804 27.7152 17.8071 27.4456C17.5338 27.176 17.3469 26.8313 17.2701 26.4552C17.1933 26.0791 17.23 25.6887 17.3757 25.3336C17.5213 24.9784 17.7693 24.6747 18.0881 24.4608C18.4069 24.247 18.782 24.1328 19.1659 24.1328C19.6755 24.1293 20.1657 24.3283 20.5286 24.6861C20.8916 25.0438 21.0976 25.5311 21.1013 26.0408L21.101 26.0416ZM20.1147 26.0416C20.1147 25.854 20.059 25.6705 19.9548 25.5145C19.8505 25.3585 19.7023 25.2369 19.529 25.1651C19.3556 25.0932 19.1648 25.0745 18.9808 25.1111C18.7967 25.1477 18.6277 25.238 18.495 25.3707C18.3623 25.5034 18.2719 25.6725 18.2353 25.8565C18.1987 26.0406 18.2175 26.2314 18.2893 26.4047C18.3611 26.5781 18.4827 26.7263 18.6387 26.8306C18.7948 26.9348 18.9782 26.9905 19.1659 26.9905C19.2906 26.9907 19.4142 26.9663 19.5295 26.9186C19.6448 26.871 19.7495 26.801 19.8377 26.7128C19.9259 26.6245 19.9958 26.5197 20.0434 26.4044C20.091 26.2891 20.1153 26.1655 20.115 26.0408L20.1147 26.0416Z" fill="#353434"/>
</g>
<defs>
<clipPath id="clip0_378_1857">
<rect width="30" height="30" rx="5" fill="white"/>
</clipPath>
</defs>
</svg>
