<svg width="48" height="48" viewBox="0 0 48 48" fill="none" xmlns="http://www.w3.org/2000/svg">
<g clip-path="url(#clip0_413_453)">
<path d="M0 0H48V48H0V0Z" fill="#D20606"/>
<path d="M11.7598 29.8981L11.8543 30.174C11.8439 30.1438 11.807 30.0478 11.7598 29.8981ZM15.6535 23.6041C15.7051 22.9669 15.8996 22.3496 16.2226 21.798C16.5457 21.2464 16.9889 20.7747 17.5194 20.4181C19.1032 19.26 21.0772 19.9139 21.0772 19.9139V16.0197C21.5569 16.0075 22.0368 16.0376 22.5112 16.1095V21.1178C22.5112 21.1178 20.5372 20.4639 18.9534 21.622C18.4229 21.9786 17.9797 22.4503 17.6566 23.0019C17.3336 23.5535 17.1391 24.1708 17.0875 24.808C17.0499 25.799 17.334 26.7756 17.8974 27.5919C17.7292 27.5021 17.5614 27.4 17.3876 27.2857C16.815 26.8648 16.3565 26.3077 16.0537 25.6648C15.7509 25.0219 15.6133 24.3136 15.6535 23.6041ZM30.6786 8.81993C29.8255 7.86674 29.2543 6.69512 29.0287 5.43597H30.3989C30.3398 7.13305 30.957 8.78415 32.115 10.0262L32.1452 10.056C31.6069 9.70729 31.1147 9.29199 30.6805 8.81993H30.6786ZM37.2727 12.348V17.2562C36.2484 17.2094 35.2304 17.0709 34.2308 16.8423C33.1909 16.5762 32.1933 16.1662 31.2669 15.6242C31.2669 15.6242 30.4637 15.0965 30.4027 15.0601V25.2001C30.369 26.2751 30.1665 27.3381 29.8026 28.3502C28.9406 30.5803 27.245 32.3877 25.0745 33.3902C23.8928 33.9345 22.6074 34.2169 21.3064 34.218C19.5033 34.2127 17.7403 33.6855 16.2304 32.6999C15.7093 32.3404 15.2231 31.9326 14.7785 31.4818L14.7903 31.4937C16.2987 32.4824 18.0627 33.0099 19.8662 33.0118C21.1672 33.0107 22.4526 32.7283 23.6343 32.184C25.8049 31.1814 27.5004 29.374 28.3625 27.1439C28.7264 26.1319 28.9289 25.0689 28.9626 23.9939V13.86C29.0287 13.8959 29.8267 14.4241 29.8267 14.4241C30.7532 14.9661 31.7508 15.3761 32.7907 15.6422C33.7902 15.8707 34.8082 16.0093 35.8325 16.0561V12.21C36.3022 12.3307 36.7877 12.3772 37.2717 12.348H37.2727Z" fill="#F8F7F7"/>
<path d="M35.833 12.2039V16.0499C34.8087 16.0031 33.7906 15.8646 32.7911 15.636C31.7512 15.37 30.7536 14.96 29.8272 14.418C29.8272 14.418 29.0239 13.8902 28.963 13.8538V23.9939C28.9293 25.0688 28.7268 26.1319 28.3629 27.1439C27.5009 29.374 25.8053 31.1814 23.6348 32.184C22.4531 32.7283 21.1677 33.0107 19.8667 33.0118C18.0636 33.0065 16.3006 32.4792 14.7907 31.4937L14.7789 31.4818C14.5267 31.2248 14.2884 30.9544 14.065 30.672C13.4973 29.9214 13.0406 29.093 12.709 28.2122V28.2061C12.3478 27.152 12.1673 26.0445 12.175 24.9303C12.2009 23.478 12.5777 22.0534 13.2731 20.7781C13.8276 19.7938 14.5483 18.9129 15.4031 18.1742C16.1584 17.5377 17.014 17.0308 17.9351 16.6741C18.9312 16.2546 19.9984 16.0301 21.0791 16.0126V19.9064C21.0791 19.9064 19.105 19.2525 17.5212 20.4105C16.9554 20.7829 16.4889 21.2875 16.162 21.8808C15.8351 22.4741 15.6578 23.1381 15.6454 23.8153C15.633 24.4926 15.7858 25.1626 16.0907 25.7675C16.3956 26.3723 16.8433 26.8938 17.3951 27.2866C17.569 27.4005 17.7372 27.5026 17.9049 27.5928C18.4831 28.3625 19.3068 28.9117 20.2396 29.1495C21.1725 29.3873 22.1586 29.2995 23.0347 28.9006C23.5431 28.6785 23.9988 28.3515 24.372 27.9411C24.7453 27.5306 25.0276 27.046 25.2006 26.5188C25.3879 25.8807 25.4631 25.2148 25.4227 24.5509V5.43597H29.0225C29.2454 6.696 29.817 7.86834 30.6725 8.81993C31.1094 9.28919 31.6011 9.70418 32.1372 10.056C32.7164 10.677 33.3958 11.1962 34.1471 11.592C34.6831 11.8621 35.2489 12.0682 35.833 12.2062V12.2039Z" fill="#F8F7F7"/>
<path d="M11.2734 27.0239L11.3632 27.2819C11.3514 27.2521 11.3155 27.1619 11.2734 27.0239Z" fill="#D20606"/>
<path d="M17.9338 16.6802C17.0121 17.0356 16.1562 17.5426 15.4018 18.1804C14.5451 18.9196 13.8243 19.8029 13.2718 20.7904C12.5753 22.0653 12.1985 23.4901 12.1738 24.9426C12.1684 26.0568 12.3488 27.164 12.7077 28.2188V28.225C13.0407 29.1051 13.4973 29.9333 14.0637 30.6848C14.2871 30.9672 14.5254 31.2375 14.7776 31.4946C13.9649 30.9315 13.2391 30.2523 12.6236 29.4785C12.0567 28.7326 11.602 27.9079 11.2737 27.0305V27.0187C10.9091 25.9634 10.7285 24.8533 10.7398 23.7368C10.7657 22.2845 11.1424 20.8599 11.8378 19.5846C12.3903 18.5971 13.1111 17.7138 13.9678 16.9746C14.9393 16.1446 16.0762 15.5309 17.3031 15.174C18.53 14.8171 19.8188 14.7253 21.0839 14.9046V16.0206C20.0012 16.0374 18.9318 16.262 17.9338 16.6821V16.6802Z" fill="#D20606"/>
<path d="M29.0278 5.43595H25.4279V24.5519C25.4653 25.2156 25.3903 25.881 25.2058 26.5198C25.03 27.0454 24.7466 27.5287 24.3737 27.9387C24.0008 28.3488 23.5466 28.6767 23.04 28.9016C22.3706 29.227 21.6244 29.3617 20.8835 29.2908C20.1425 29.2198 19.4355 28.946 18.84 28.4995C18.4823 28.2541 18.168 27.9507 17.9102 27.6018C18.4724 27.9128 19.1013 28.0837 19.7437 28.1002C20.386 28.1166 21.0228 27.9781 21.6003 27.6963C22.1081 27.4733 22.5634 27.146 22.9365 26.7357C23.3096 26.3253 23.5923 25.8411 23.7662 25.3144C23.9535 24.6763 24.0287 24.0104 23.9882 23.3465V4.23016H28.9621C28.926 4.63316 28.9481 5.03927 29.0278 5.43595ZM35.8316 11.1417V12.2039C34.4091 11.8824 33.1193 11.1328 32.1358 10.0559C32.322 10.1759 32.5077 10.2841 32.7056 10.3867C33.6677 10.897 34.7427 11.1568 35.8316 11.1422V11.1417Z" fill="#D20606"/>
<path d="M29.1482 41.6871C29.1471 41.8235 29.1674 41.9591 29.2082 42.0892C29.2082 42.101 29.2144 42.1072 29.2144 42.119C29.3108 42.4286 29.5037 42.6993 29.7649 42.8914C30.0262 43.0835 30.342 43.187 30.6663 43.1868V44.7229C29.9356 44.7979 29.2 44.6382 28.5661 44.2669C28.1129 43.9858 27.7411 43.5911 27.4876 43.1219C27.2341 42.6527 27.1077 42.1253 27.1211 41.5922C27.1344 41.0591 27.2869 40.5387 27.5636 40.0827C27.8402 39.6268 28.2312 39.2511 28.6979 38.993C29.3087 38.688 29.9917 38.5572 30.672 38.615V40.1511C30.4725 40.1508 30.275 40.1898 30.0907 40.266C29.9063 40.3422 29.7389 40.454 29.5978 40.595C29.4568 40.736 29.345 40.9035 29.2688 41.0879C29.1926 41.2722 29.1536 41.4697 29.1539 41.6692L29.1482 41.6871Z" fill="#D20606"/>
<path d="M32.1961 41.6871C32.1972 41.8234 32.177 41.9591 32.1361 42.0892C32.1361 42.101 32.13 42.1071 32.13 42.1189C32.0336 42.4286 31.8406 42.6992 31.5794 42.8914C31.3182 43.0835 31.0023 43.187 30.678 43.1868V44.7228C31.4068 44.7978 32.1404 44.638 32.7721 44.2669C33.219 43.9972 33.588 43.6157 33.8426 43.16C34.0972 42.7043 34.2287 42.1902 34.224 41.6682C34.226 41.1214 34.0805 40.5842 33.8027 40.1132C33.525 39.6423 33.1254 39.2549 32.6459 38.992C32.0351 38.687 31.3521 38.5563 30.6719 38.614V40.1501C30.8713 40.1498 31.0689 40.1888 31.2532 40.265C31.4375 40.3412 31.605 40.453 31.746 40.594C31.8871 40.7351 31.9989 40.9025 32.0751 41.0869C32.1512 41.2712 32.1903 41.4687 32.19 41.6682V41.6861L32.1961 41.6871Z" fill="#F8F7F7"/>
<path d="M7.16992 37.224H12.7925L12.2728 38.7719H10.8029V44.694H8.99372V38.7719H7.16992V37.224ZM22.0741 37.224V38.7719H23.8979V44.694H25.7099V38.7719H27.1798L27.6995 37.224H22.0741ZM14.0163 38.9821C14.1895 38.9821 14.3589 38.9307 14.5029 38.8345C14.647 38.7382 14.7593 38.6014 14.8256 38.4414C14.8919 38.2813 14.9092 38.1052 14.8754 37.9352C14.8416 37.7653 14.7582 37.6092 14.6357 37.4867C14.5132 37.3642 14.3571 37.2808 14.1872 37.247C14.0172 37.2132 13.8411 37.2305 13.681 37.2968C13.521 37.3631 13.3842 37.4754 13.2879 37.6195C13.1916 37.7635 13.1403 37.9329 13.1403 38.1061C13.1399 38.2212 13.1623 38.3353 13.2061 38.4417C13.25 38.5481 13.3145 38.6448 13.3958 38.7262C13.4772 38.8076 13.5739 38.8722 13.6803 38.9161C13.7867 38.96 13.9007 38.9824 14.0158 38.9821H14.0163ZM13.1398 44.6893H14.9159V39.6001H13.1398V44.6893ZM21.2997 38.9415H19.2235L17.4357 40.7294V37.224H15.6719L15.6657 44.6817H17.4479V42.7379L17.9998 42.2324L19.7277 44.6803H21.628L19.1239 41.1045L21.2997 38.9415ZM38.3276 41.1149L40.5011 38.9415H38.425L36.6371 40.7294V37.224H34.8719L34.86 44.6893H36.6423V42.7455L37.2003 42.2413L38.9282 44.6893H40.8304L38.3276 41.1149ZM33.7615 41.6668C33.7699 42.2809 33.5954 42.8836 33.2603 43.3983C32.9252 43.9129 32.4446 44.3163 31.8796 44.5571C31.3146 44.7979 30.6908 44.8653 30.0875 44.7506C29.4841 44.6359 28.9285 44.3444 28.4913 43.9131C28.054 43.4818 27.7549 42.9303 27.632 42.3285C27.5091 41.7268 27.5679 41.1021 27.801 40.5339C28.034 39.9657 28.4308 39.4796 28.9409 39.1375C29.4509 38.7954 30.0512 38.6127 30.6653 38.6126C31.4807 38.607 32.265 38.9254 32.8457 39.4979C33.4264 40.0703 33.756 40.85 33.762 41.6654L33.7615 41.6668ZM32.1834 41.6668C32.1834 41.3665 32.0944 41.073 31.9276 40.8234C31.7607 40.5737 31.5237 40.3792 31.2463 40.2643C30.9689 40.1494 30.6636 40.1193 30.3691 40.1779C30.0747 40.2364 29.8042 40.381 29.5918 40.5933C29.3795 40.8056 29.2349 41.0761 29.1764 41.3706C29.1178 41.6651 29.1479 41.9704 29.2628 42.2478C29.3777 42.5252 29.5722 42.7622 29.8219 42.9291C30.0715 43.0959 30.3651 43.1849 30.6653 43.1849C30.8649 43.1853 31.0626 43.1462 31.2471 43.07C31.4316 42.9937 31.5992 42.8818 31.7403 42.7406C31.8814 42.5994 31.9932 42.4318 32.0693 42.2473C32.1454 42.0627 32.1844 41.865 32.1839 41.6654L32.1834 41.6668Z" fill="#F8F7F7"/>
</g>
<defs>
<clipPath id="clip0_413_453">
<rect width="48" height="48" rx="5" fill="white"/>
</clipPath>
</defs>
</svg>
