<svg width="30" height="30" viewBox="0 0 30 30" fill="none" xmlns="http://www.w3.org/2000/svg">
<path d="M15 30C23.2843 30 30 23.2843 30 15C30 6.71573 23.2843 0 15 0C6.71573 0 0 6.71573 0 15C0 23.2843 6.71573 30 15 30Z" fill="#D20606"/>
<path d="M24.829 8.88921C24.0957 9.21786 23.3169 9.43361 22.519 9.52911C23.3609 9.01858 23.989 8.21999 24.2869 7.28151C23.4988 7.75484 22.6349 8.08844 21.7333 8.26761C21.3591 7.86296 20.9052 7.54012 20.4001 7.31941C19.8951 7.09869 19.3498 6.98487 18.7987 6.98511C18.2679 6.9879 17.7429 7.0952 17.2537 7.3009C16.7644 7.50659 16.3205 7.80665 15.9472 8.18393C15.5739 8.56121 15.2785 9.00833 15.0781 9.49975C14.8776 9.99117 14.7758 10.5173 14.7787 11.048C14.7783 11.3596 14.813 11.6703 14.8822 11.9741C13.2797 11.891 11.7129 11.4698 10.2847 10.7382C8.85655 10.0066 7.59931 8.98108 6.59558 7.72911C6.0816 8.62368 5.9242 9.67928 6.15486 10.6849C6.38551 11.6905 6.98722 12.572 7.83968 13.1531C7.20054 13.133 6.57572 12.9587 6.01838 12.6452V12.6965C6.01495 13.6303 6.33399 14.5367 6.92158 15.2625C7.50918 15.9882 8.3293 16.4889 9.24338 16.6799C8.89834 16.7751 8.542 16.823 8.18408 16.8224C7.9301 16.8225 7.67668 16.7986 7.42718 16.751C7.67999 17.5545 8.17813 18.2585 8.85165 18.7643C9.52516 19.2701 10.3402 19.5522 11.1823 19.571C10.3507 20.2311 9.39639 20.7197 8.37465 21.0083C7.35292 21.297 6.28406 21.3801 5.22998 21.2528C7.06389 22.4457 9.20485 23.0801 11.3926 23.0789C18.787 23.0789 22.8313 16.8881 22.8313 11.5193C22.8313 11.3431 22.8272 11.1679 22.819 10.9937C23.6087 10.4166 24.2893 9.70344 24.829 8.88771V8.88921Z" fill="#353434"/>
</svg>
