<svg width="48" height="48" viewBox="0 0 48 48" fill="none" xmlns="http://www.w3.org/2000/svg">
<path d="M24 48C37.2548 48 48 37.2548 48 24C48 10.7452 37.2548 0 24 0C10.7452 0 0 10.7452 0 24C0 37.2548 10.7452 48 24 48Z" fill="#D20606"/>
<path d="M39.7275 14.2229C38.5543 14.7487 37.3082 15.0939 36.0315 15.2467C37.3786 14.4299 38.3836 13.1521 38.8602 11.6506C37.5993 12.4079 36.217 12.9417 34.7744 13.2283C34.1757 12.5809 33.4494 12.0644 32.6414 11.7112C31.8333 11.3581 30.9609 11.176 30.0791 11.1763C29.2299 11.1808 28.3899 11.3525 27.6071 11.6816C26.8242 12.0107 26.1139 12.4908 25.5166 13.0944C24.9194 13.6981 24.4468 14.4135 24.1261 15.1998C23.8053 15.986 23.6425 16.8278 23.6471 17.677C23.6465 18.1755 23.702 18.6726 23.8127 19.1587C21.2487 19.0257 18.7418 18.3518 16.4567 17.1812C14.1717 16.0106 12.1601 14.3699 10.5541 12.3667C9.73173 13.798 9.47989 15.487 9.84894 17.096C10.218 18.7049 11.1807 20.1153 12.5447 21.0451C11.522 21.0129 10.5223 20.7341 9.63058 20.2325V20.3146C9.62509 21.8087 10.1356 23.2589 11.0757 24.4201C12.0159 25.5813 13.3281 26.3824 14.7906 26.688C14.2385 26.8403 13.6684 26.917 13.0957 26.916C12.6893 26.9161 12.2839 26.8778 11.8847 26.8018C12.2891 28.0873 13.0862 29.2138 14.1638 30.0231C15.2414 30.8324 16.5455 31.2837 17.8928 31.3138C16.5623 32.3699 15.0354 33.1516 13.4006 33.6135C11.7658 34.0754 10.0557 34.2084 8.36914 34.0046C11.3034 35.9132 14.7289 36.9283 18.2293 36.9264C30.0603 36.9264 36.5312 27.0211 36.5312 18.4311C36.5312 18.1491 36.5247 17.8688 36.5115 17.5901C37.775 16.6667 38.864 15.5257 39.7275 14.2205V14.2229Z" fill="#F8F7F7"/>
</svg>
