<svg width="76" height="76" viewBox="0 0 76 76" fill="none" xmlns="http://www.w3.org/2000/svg">
<circle cx="38" cy="38" r="38" fill="#FCEEEE"/>
<path d="M37.8977 43.0798C30.9977 43.0798 25.1758 44.2073 25.1758 48.5588C25.1758 52.9121 31.0353 54 37.8977 54C44.7976 54 50.6195 52.8725 50.6195 48.521C50.6195 44.1677 44.76 43.0798 37.8977 43.0798Z" fill="#D20606"/>
<path opacity="0.4" d="M37.8981 38.9341C42.5703 38.9341 46.3166 35.1661 46.3166 30.467C46.3166 25.7661 42.5703 22 37.8981 22C33.2259 22 29.4795 25.7661 29.4795 30.467C29.4795 35.1661 33.2259 38.9341 37.8981 38.9341Z" fill="#D20606"/>
<path opacity="0.4" d="M56.1761 32.4385C57.3849 27.6836 53.8409 23.4131 49.3281 23.4131C48.8374 23.4131 48.3682 23.4672 47.9098 23.559C47.8489 23.5734 47.7808 23.6041 47.745 23.6581C47.7038 23.7265 47.7343 23.8184 47.779 23.8778C49.1347 25.7906 49.9137 28.1195 49.9137 30.6194C49.9137 33.0149 49.1992 35.2483 47.9456 37.1016C47.8167 37.2925 47.9313 37.5501 48.1587 37.5897C48.4739 37.6455 48.7962 37.6744 49.1257 37.6834C52.4119 37.7698 55.3613 35.6427 56.1761 32.4385Z" fill="#D20606"/>
<path d="M59.6188 43.6339C59.0171 42.3443 57.5648 41.4599 55.3567 41.0258C54.3144 40.7701 51.4939 40.4099 48.8704 40.4585C48.831 40.4639 48.8095 40.4909 48.8059 40.5089C48.8006 40.5341 48.8113 40.5774 48.8632 40.6044C50.0756 41.2078 54.7621 43.832 54.173 49.3668C54.1479 49.6063 54.3395 49.8135 54.5777 49.7774C55.731 49.6117 58.6983 48.9705 59.6188 46.9731C60.1274 45.9177 60.1274 44.6911 59.6188 43.6339Z" fill="#D20606"/>
<path opacity="0.4" d="M28.0892 23.5596C27.6325 23.4659 27.1615 23.4137 26.6709 23.4137C22.158 23.4137 18.614 27.6841 19.8246 32.4391C20.6376 35.6432 23.5871 37.7704 26.8732 37.6839C27.2027 37.6749 27.5269 37.6443 27.8403 37.5903C28.0677 37.5506 28.1823 37.2931 28.0534 37.1021C26.7998 35.247 26.0853 33.0154 26.0853 30.6199C26.0853 28.1182 26.8661 25.7894 28.2217 23.8784C28.2647 23.8189 28.2969 23.7271 28.2539 23.6586C28.2181 23.6028 28.1519 23.574 28.0892 23.5596Z" fill="#D20606"/>
<path d="M20.6431 41.0253C18.435 41.4594 16.9845 42.3438 16.3828 43.6333C15.8724 44.6906 15.8724 45.9172 16.3828 46.9744C17.3033 48.97 20.2706 49.613 21.4239 49.7769C21.6621 49.813 21.8519 49.6076 21.8268 49.3663C21.2377 43.8333 25.9242 41.2091 27.1384 40.6057C27.1885 40.5769 27.1992 40.5354 27.1939 40.5084C27.1903 40.4904 27.1706 40.4634 27.1312 40.4598C24.5059 40.4094 21.6872 40.7696 20.6431 41.0253Z" fill="#D20606"/>
</svg>
